<mxfile host="app.diagrams.net" modified="2024-03-17T22:52:08.904Z" agent="Mozilla/5.0 (X11; Linux x86_64; rv:123.0) Gecko/20100101 Firefox/123.0" etag="DPzLtEhTl5dzn16GJnuM" version="24.0.7" type="github">
  <diagram name="Page-1" id="rpEb-KMIDe93aKkDXKsd">
    <mxGraphModel dx="1034" dy="2219" grid="1" gridSize="10" guides="1" tooltips="1" connect="1" arrows="1" fold="1" page="1" pageScale="1" pageWidth="850" pageHeight="1100" math="0" shadow="0">
      <root>
        <mxCell id="0" />
        <mxCell id="1" parent="0" />
        <mxCell id="XvOkOxBaqr0Ywed5quaq-54" style="edgeStyle=orthogonalEdgeStyle;rounded=0;orthogonalLoop=1;jettySize=auto;html=1;endArrow=open;endFill=0;" edge="1" parent="1" source="XvOkOxBaqr0Ywed5quaq-13" target="XvOkOxBaqr0Ywed5quaq-50">
          <mxGeometry relative="1" as="geometry">
            <Array as="points">
              <mxPoint x="140" y="180" />
            </Array>
          </mxGeometry>
        </mxCell>
        <mxCell id="XvOkOxBaqr0Ywed5quaq-55" value="1" style="edgeLabel;html=1;align=center;verticalAlign=middle;resizable=0;points=[];" vertex="1" connectable="0" parent="XvOkOxBaqr0Ywed5quaq-54">
          <mxGeometry x="-0.7307" relative="1" as="geometry">
            <mxPoint x="10" as="offset" />
          </mxGeometry>
        </mxCell>
        <mxCell id="XvOkOxBaqr0Ywed5quaq-73" style="edgeStyle=orthogonalEdgeStyle;rounded=0;orthogonalLoop=1;jettySize=auto;html=1;endArrow=open;endFill=0;startArrow=open;startFill=0;" edge="1" parent="1" source="XvOkOxBaqr0Ywed5quaq-13" target="XvOkOxBaqr0Ywed5quaq-56">
          <mxGeometry relative="1" as="geometry">
            <Array as="points">
              <mxPoint x="530" y="190" />
              <mxPoint x="530" y="190" />
            </Array>
          </mxGeometry>
        </mxCell>
        <mxCell id="XvOkOxBaqr0Ywed5quaq-74" value="0..1" style="edgeLabel;html=1;align=center;verticalAlign=middle;resizable=0;points=[];" vertex="1" connectable="0" parent="XvOkOxBaqr0Ywed5quaq-73">
          <mxGeometry x="-0.9245" y="2" relative="1" as="geometry">
            <mxPoint x="12" as="offset" />
          </mxGeometry>
        </mxCell>
        <mxCell id="XvOkOxBaqr0Ywed5quaq-75" value="0..1" style="edgeLabel;html=1;align=center;verticalAlign=middle;resizable=0;points=[];" vertex="1" connectable="0" parent="XvOkOxBaqr0Ywed5quaq-73">
          <mxGeometry x="0.9078" y="2" relative="1" as="geometry">
            <mxPoint x="-8" y="2" as="offset" />
          </mxGeometry>
        </mxCell>
        <mxCell id="XvOkOxBaqr0Ywed5quaq-13" value="Piece" style="swimlane;fontStyle=1;align=center;verticalAlign=top;childLayout=stackLayout;horizontal=1;startSize=26;horizontalStack=0;resizeParent=1;resizeParentMax=0;resizeLast=0;collapsible=1;marginBottom=0;whiteSpace=wrap;html=1;" vertex="1" parent="1">
          <mxGeometry x="280" y="130" width="260" height="120" as="geometry" />
        </mxCell>
        <mxCell id="XvOkOxBaqr0Ywed5quaq-15" value="" style="line;strokeWidth=1;fillColor=none;align=left;verticalAlign=middle;spacingTop=-1;spacingLeft=3;spacingRight=3;rotatable=0;labelPosition=right;points=[];portConstraint=eastwest;strokeColor=inherit;" vertex="1" parent="XvOkOxBaqr0Ywed5quaq-13">
          <mxGeometry y="26" width="260" height="8" as="geometry" />
        </mxCell>
        <mxCell id="XvOkOxBaqr0Ywed5quaq-16" value="&lt;div&gt;+ Piece(Color)&lt;/div&gt;&lt;div&gt;+ getSquare(): Square&lt;/div&gt;&lt;div&gt;+ getPossibleMoves(): vector&amp;lt;Square&amp;gt;&lt;/div&gt;&lt;div&gt;+ moveTo(Square): void&lt;/div&gt;&lt;div&gt;+ kill(): void&lt;br&gt;&lt;/div&gt;" style="text;strokeColor=none;fillColor=none;align=left;verticalAlign=top;spacingLeft=4;spacingRight=4;overflow=hidden;rotatable=0;points=[[0,0.5],[1,0.5]];portConstraint=eastwest;whiteSpace=wrap;html=1;" vertex="1" parent="XvOkOxBaqr0Ywed5quaq-13">
          <mxGeometry y="34" width="260" height="86" as="geometry" />
        </mxCell>
        <mxCell id="XvOkOxBaqr0Ywed5quaq-44" style="edgeStyle=orthogonalEdgeStyle;rounded=0;orthogonalLoop=1;jettySize=auto;html=1;endArrow=none;endFill=0;" edge="1" parent="1" source="XvOkOxBaqr0Ywed5quaq-18">
          <mxGeometry relative="1" as="geometry">
            <mxPoint x="590" y="400" as="targetPoint" />
            <Array as="points">
              <mxPoint x="380" y="400" />
              <mxPoint x="380" y="400" />
            </Array>
          </mxGeometry>
        </mxCell>
        <mxCell id="XvOkOxBaqr0Ywed5quaq-18" value="King" style="swimlane;fontStyle=1;align=center;verticalAlign=top;childLayout=stackLayout;horizontal=1;startSize=26;horizontalStack=0;resizeParent=1;resizeParentMax=0;resizeLast=0;collapsible=1;marginBottom=0;whiteSpace=wrap;html=1;" vertex="1" parent="1">
          <mxGeometry x="130" y="300" width="160" height="70" as="geometry" />
        </mxCell>
        <mxCell id="XvOkOxBaqr0Ywed5quaq-20" value="" style="line;strokeWidth=1;fillColor=none;align=left;verticalAlign=middle;spacingTop=-1;spacingLeft=3;spacingRight=3;rotatable=0;labelPosition=right;points=[];portConstraint=eastwest;strokeColor=inherit;" vertex="1" parent="XvOkOxBaqr0Ywed5quaq-18">
          <mxGeometry y="26" width="160" height="8" as="geometry" />
        </mxCell>
        <mxCell id="XvOkOxBaqr0Ywed5quaq-21" value="+ King(Color)&lt;br&gt;&lt;div&gt;+ castle(Rook): void&lt;/div&gt;" style="text;strokeColor=none;fillColor=none;align=left;verticalAlign=top;spacingLeft=4;spacingRight=4;overflow=hidden;rotatable=0;points=[[0,0.5],[1,0.5]];portConstraint=eastwest;whiteSpace=wrap;html=1;" vertex="1" parent="XvOkOxBaqr0Ywed5quaq-18">
          <mxGeometry y="34" width="160" height="36" as="geometry" />
        </mxCell>
        <mxCell id="XvOkOxBaqr0Ywed5quaq-22" value="Rook" style="swimlane;fontStyle=1;align=center;verticalAlign=top;childLayout=stackLayout;horizontal=1;startSize=26;horizontalStack=0;resizeParent=1;resizeParentMax=0;resizeLast=0;collapsible=1;marginBottom=0;whiteSpace=wrap;html=1;" vertex="1" parent="1">
          <mxGeometry x="180" y="456" width="160" height="70" as="geometry" />
        </mxCell>
        <mxCell id="XvOkOxBaqr0Ywed5quaq-24" value="" style="line;strokeWidth=1;fillColor=none;align=left;verticalAlign=middle;spacingTop=-1;spacingLeft=3;spacingRight=3;rotatable=0;labelPosition=right;points=[];portConstraint=eastwest;strokeColor=inherit;" vertex="1" parent="XvOkOxBaqr0Ywed5quaq-22">
          <mxGeometry y="26" width="160" height="8" as="geometry" />
        </mxCell>
        <mxCell id="XvOkOxBaqr0Ywed5quaq-25" value="&lt;div&gt;+ Rook(Color)&lt;/div&gt;&lt;div&gt;+ castle(King)&lt;br&gt;&lt;/div&gt;" style="text;strokeColor=none;fillColor=none;align=left;verticalAlign=top;spacingLeft=4;spacingRight=4;overflow=hidden;rotatable=0;points=[[0,0.5],[1,0.5]];portConstraint=eastwest;whiteSpace=wrap;html=1;" vertex="1" parent="XvOkOxBaqr0Ywed5quaq-22">
          <mxGeometry y="34" width="160" height="36" as="geometry" />
        </mxCell>
        <mxCell id="XvOkOxBaqr0Ywed5quaq-26" value="Bishop" style="swimlane;fontStyle=1;align=center;verticalAlign=top;childLayout=stackLayout;horizontal=1;startSize=26;horizontalStack=0;resizeParent=1;resizeParentMax=0;resizeLast=0;collapsible=1;marginBottom=0;whiteSpace=wrap;html=1;" vertex="1" parent="1">
          <mxGeometry x="390" y="464" width="160" height="60" as="geometry" />
        </mxCell>
        <mxCell id="XvOkOxBaqr0Ywed5quaq-28" value="" style="line;strokeWidth=1;fillColor=none;align=left;verticalAlign=middle;spacingTop=-1;spacingLeft=3;spacingRight=3;rotatable=0;labelPosition=right;points=[];portConstraint=eastwest;strokeColor=inherit;" vertex="1" parent="XvOkOxBaqr0Ywed5quaq-26">
          <mxGeometry y="26" width="160" height="8" as="geometry" />
        </mxCell>
        <mxCell id="XvOkOxBaqr0Ywed5quaq-29" value="+ Bishop(Color)" style="text;strokeColor=none;fillColor=none;align=left;verticalAlign=top;spacingLeft=4;spacingRight=4;overflow=hidden;rotatable=0;points=[[0,0.5],[1,0.5]];portConstraint=eastwest;whiteSpace=wrap;html=1;" vertex="1" parent="XvOkOxBaqr0Ywed5quaq-26">
          <mxGeometry y="34" width="160" height="26" as="geometry" />
        </mxCell>
        <mxCell id="XvOkOxBaqr0Ywed5quaq-30" value="Pawn" style="swimlane;fontStyle=1;align=center;verticalAlign=top;childLayout=stackLayout;horizontal=1;startSize=26;horizontalStack=0;resizeParent=1;resizeParentMax=0;resizeLast=0;collapsible=1;marginBottom=0;whiteSpace=wrap;html=1;" vertex="1" parent="1">
          <mxGeometry x="790" y="440" width="160" height="70" as="geometry" />
        </mxCell>
        <mxCell id="XvOkOxBaqr0Ywed5quaq-32" value="" style="line;strokeWidth=1;fillColor=none;align=left;verticalAlign=middle;spacingTop=-1;spacingLeft=3;spacingRight=3;rotatable=0;labelPosition=right;points=[];portConstraint=eastwest;strokeColor=inherit;" vertex="1" parent="XvOkOxBaqr0Ywed5quaq-30">
          <mxGeometry y="26" width="160" height="8" as="geometry" />
        </mxCell>
        <mxCell id="XvOkOxBaqr0Ywed5quaq-33" value="&lt;div&gt;+ Pawn(Color)&lt;/div&gt;&lt;div&gt;+ promoteTo(Piece)&lt;br&gt;&lt;/div&gt;" style="text;strokeColor=none;fillColor=none;align=left;verticalAlign=top;spacingLeft=4;spacingRight=4;overflow=hidden;rotatable=0;points=[[0,0.5],[1,0.5]];portConstraint=eastwest;whiteSpace=wrap;html=1;" vertex="1" parent="XvOkOxBaqr0Ywed5quaq-30">
          <mxGeometry y="34" width="160" height="36" as="geometry" />
        </mxCell>
        <mxCell id="XvOkOxBaqr0Ywed5quaq-34" value="Queen" style="swimlane;fontStyle=1;align=center;verticalAlign=top;childLayout=stackLayout;horizontal=1;startSize=26;horizontalStack=0;resizeParent=1;resizeParentMax=0;resizeLast=0;collapsible=1;marginBottom=0;whiteSpace=wrap;html=1;" vertex="1" parent="1">
          <mxGeometry x="600" y="464" width="160" height="60" as="geometry" />
        </mxCell>
        <mxCell id="XvOkOxBaqr0Ywed5quaq-36" value="" style="line;strokeWidth=1;fillColor=none;align=left;verticalAlign=middle;spacingTop=-1;spacingLeft=3;spacingRight=3;rotatable=0;labelPosition=right;points=[];portConstraint=eastwest;strokeColor=inherit;" vertex="1" parent="XvOkOxBaqr0Ywed5quaq-34">
          <mxGeometry y="26" width="160" height="8" as="geometry" />
        </mxCell>
        <mxCell id="XvOkOxBaqr0Ywed5quaq-37" value="+ Queen(Color)" style="text;strokeColor=none;fillColor=none;align=left;verticalAlign=top;spacingLeft=4;spacingRight=4;overflow=hidden;rotatable=0;points=[[0,0.5],[1,0.5]];portConstraint=eastwest;whiteSpace=wrap;html=1;" vertex="1" parent="XvOkOxBaqr0Ywed5quaq-34">
          <mxGeometry y="34" width="160" height="26" as="geometry" />
        </mxCell>
        <mxCell id="XvOkOxBaqr0Ywed5quaq-38" value="Knight" style="swimlane;fontStyle=1;align=center;verticalAlign=top;childLayout=stackLayout;horizontal=1;startSize=26;horizontalStack=0;resizeParent=1;resizeParentMax=0;resizeLast=0;collapsible=1;marginBottom=0;whiteSpace=wrap;html=1;" vertex="1" parent="1">
          <mxGeometry x="780" y="270" width="160" height="60" as="geometry" />
        </mxCell>
        <mxCell id="XvOkOxBaqr0Ywed5quaq-40" value="" style="line;strokeWidth=1;fillColor=none;align=left;verticalAlign=middle;spacingTop=-1;spacingLeft=3;spacingRight=3;rotatable=0;labelPosition=right;points=[];portConstraint=eastwest;strokeColor=inherit;" vertex="1" parent="XvOkOxBaqr0Ywed5quaq-38">
          <mxGeometry y="26" width="160" height="8" as="geometry" />
        </mxCell>
        <mxCell id="XvOkOxBaqr0Ywed5quaq-41" value="+ Knight(Color)" style="text;strokeColor=none;fillColor=none;align=left;verticalAlign=top;spacingLeft=4;spacingRight=4;overflow=hidden;rotatable=0;points=[[0,0.5],[1,0.5]];portConstraint=eastwest;whiteSpace=wrap;html=1;" vertex="1" parent="XvOkOxBaqr0Ywed5quaq-38">
          <mxGeometry y="34" width="160" height="26" as="geometry" />
        </mxCell>
        <mxCell id="XvOkOxBaqr0Ywed5quaq-42" value="" style="edgeStyle=none;html=1;endSize=12;endArrow=block;endFill=0;rounded=0;" edge="1" parent="1" target="XvOkOxBaqr0Ywed5quaq-13">
          <mxGeometry width="160" relative="1" as="geometry">
            <mxPoint x="410" y="400" as="sourcePoint" />
            <mxPoint x="590" y="330" as="targetPoint" />
          </mxGeometry>
        </mxCell>
        <mxCell id="XvOkOxBaqr0Ywed5quaq-45" style="edgeStyle=orthogonalEdgeStyle;rounded=0;orthogonalLoop=1;jettySize=auto;html=1;endArrow=none;endFill=0;" edge="1" parent="1" source="XvOkOxBaqr0Ywed5quaq-22">
          <mxGeometry relative="1" as="geometry">
            <mxPoint x="590" y="400" as="targetPoint" />
            <mxPoint x="310" y="410" as="sourcePoint" />
            <Array as="points">
              <mxPoint x="320" y="400" />
            </Array>
          </mxGeometry>
        </mxCell>
        <mxCell id="XvOkOxBaqr0Ywed5quaq-46" style="edgeStyle=orthogonalEdgeStyle;rounded=0;orthogonalLoop=1;jettySize=auto;html=1;endArrow=none;endFill=0;" edge="1" parent="1" source="XvOkOxBaqr0Ywed5quaq-26">
          <mxGeometry relative="1" as="geometry">
            <mxPoint x="400" y="400" as="targetPoint" />
            <mxPoint x="320" y="420" as="sourcePoint" />
            <Array as="points">
              <mxPoint x="470" y="400" />
            </Array>
          </mxGeometry>
        </mxCell>
        <mxCell id="XvOkOxBaqr0Ywed5quaq-47" style="edgeStyle=orthogonalEdgeStyle;rounded=0;orthogonalLoop=1;jettySize=auto;html=1;endArrow=none;endFill=0;" edge="1" parent="1" target="XvOkOxBaqr0Ywed5quaq-34">
          <mxGeometry relative="1" as="geometry">
            <mxPoint x="620" y="430" as="targetPoint" />
            <mxPoint x="590" y="400" as="sourcePoint" />
            <Array as="points">
              <mxPoint x="680" y="400" />
            </Array>
          </mxGeometry>
        </mxCell>
        <mxCell id="XvOkOxBaqr0Ywed5quaq-48" style="edgeStyle=orthogonalEdgeStyle;rounded=0;orthogonalLoop=1;jettySize=auto;html=1;endArrow=none;endFill=0;" edge="1" parent="1" target="XvOkOxBaqr0Ywed5quaq-30">
          <mxGeometry relative="1" as="geometry">
            <mxPoint x="630" y="440" as="targetPoint" />
            <mxPoint x="590" y="400" as="sourcePoint" />
            <Array as="points">
              <mxPoint x="850" y="400" />
            </Array>
          </mxGeometry>
        </mxCell>
        <mxCell id="XvOkOxBaqr0Ywed5quaq-49" style="edgeStyle=orthogonalEdgeStyle;rounded=0;orthogonalLoop=1;jettySize=auto;html=1;endArrow=none;endFill=0;" edge="1" parent="1" target="XvOkOxBaqr0Ywed5quaq-38">
          <mxGeometry relative="1" as="geometry">
            <mxPoint x="640" y="450" as="targetPoint" />
            <mxPoint x="850" y="400" as="sourcePoint" />
            <Array as="points">
              <mxPoint x="850" y="380" />
              <mxPoint x="850" y="380" />
            </Array>
          </mxGeometry>
        </mxCell>
        <mxCell id="XvOkOxBaqr0Ywed5quaq-50" value="&lt;div&gt;&amp;lt;&amp;lt;enum&amp;gt;&amp;gt;&lt;/div&gt;&lt;div&gt;Color&lt;br&gt;&lt;/div&gt;" style="swimlane;fontStyle=1;align=center;verticalAlign=top;childLayout=stackLayout;horizontal=1;startSize=40;horizontalStack=0;resizeParent=1;resizeParentMax=0;resizeLast=0;collapsible=1;marginBottom=0;whiteSpace=wrap;html=1;" vertex="1" parent="1">
          <mxGeometry x="50" width="160" height="80" as="geometry" />
        </mxCell>
        <mxCell id="XvOkOxBaqr0Ywed5quaq-51" value="&lt;div&gt;WHITE&lt;/div&gt;&lt;div&gt;BLACK&lt;br&gt;&lt;/div&gt;" style="text;strokeColor=none;fillColor=none;align=left;verticalAlign=top;spacingLeft=4;spacingRight=4;overflow=hidden;rotatable=0;points=[[0,0.5],[1,0.5]];portConstraint=eastwest;whiteSpace=wrap;html=1;" vertex="1" parent="XvOkOxBaqr0Ywed5quaq-50">
          <mxGeometry y="40" width="160" height="40" as="geometry" />
        </mxCell>
        <mxCell id="XvOkOxBaqr0Ywed5quaq-70" style="edgeStyle=orthogonalEdgeStyle;rounded=0;orthogonalLoop=1;jettySize=auto;html=1;endArrow=open;endFill=0;" edge="1" parent="1" source="XvOkOxBaqr0Ywed5quaq-56" target="XvOkOxBaqr0Ywed5quaq-60">
          <mxGeometry relative="1" as="geometry" />
        </mxCell>
        <mxCell id="XvOkOxBaqr0Ywed5quaq-71" style="edgeStyle=orthogonalEdgeStyle;rounded=0;orthogonalLoop=1;jettySize=auto;html=1;endArrow=open;endFill=0;" edge="1" parent="1" source="XvOkOxBaqr0Ywed5quaq-56" target="XvOkOxBaqr0Ywed5quaq-68">
          <mxGeometry relative="1" as="geometry" />
        </mxCell>
        <mxCell id="XvOkOxBaqr0Ywed5quaq-72" value="1" style="edgeLabel;html=1;align=center;verticalAlign=middle;resizable=0;points=[];" vertex="1" connectable="0" parent="XvOkOxBaqr0Ywed5quaq-71">
          <mxGeometry x="-0.9175" y="1" relative="1" as="geometry">
            <mxPoint as="offset" />
          </mxGeometry>
        </mxCell>
        <mxCell id="XvOkOxBaqr0Ywed5quaq-56" value="Square" style="swimlane;fontStyle=1;align=center;verticalAlign=top;childLayout=stackLayout;horizontal=1;startSize=26;horizontalStack=0;resizeParent=1;resizeParentMax=0;resizeLast=0;collapsible=1;marginBottom=0;whiteSpace=wrap;html=1;" vertex="1" parent="1">
          <mxGeometry x="780" y="138" width="160" height="104" as="geometry" />
        </mxCell>
        <mxCell id="XvOkOxBaqr0Ywed5quaq-58" value="" style="line;strokeWidth=1;fillColor=none;align=left;verticalAlign=middle;spacingTop=-1;spacingLeft=3;spacingRight=3;rotatable=0;labelPosition=right;points=[];portConstraint=eastwest;strokeColor=inherit;" vertex="1" parent="XvOkOxBaqr0Ywed5quaq-56">
          <mxGeometry y="26" width="160" height="8" as="geometry" />
        </mxCell>
        <mxCell id="XvOkOxBaqr0Ywed5quaq-59" value="&lt;div&gt;+ Square(Row, Column)&lt;br&gt;&lt;/div&gt;&lt;div&gt;+ getRow(): Row&lt;/div&gt;&lt;div&gt;+ getColumn(à: Column&lt;br&gt;&lt;/div&gt;&lt;div&gt;+ getPiece(); Piece&lt;br&gt;&lt;/div&gt;" style="text;strokeColor=none;fillColor=none;align=left;verticalAlign=top;spacingLeft=4;spacingRight=4;overflow=hidden;rotatable=0;points=[[0,0.5],[1,0.5]];portConstraint=eastwest;whiteSpace=wrap;html=1;" vertex="1" parent="XvOkOxBaqr0Ywed5quaq-56">
          <mxGeometry y="34" width="160" height="70" as="geometry" />
        </mxCell>
        <mxCell id="XvOkOxBaqr0Ywed5quaq-60" value="&lt;div&gt;&amp;lt;&amp;lt;enum&amp;gt;&amp;gt;&lt;/div&gt;&lt;div&gt;Row&lt;br&gt;&lt;/div&gt;" style="swimlane;fontStyle=1;align=center;verticalAlign=top;childLayout=stackLayout;horizontal=1;startSize=40;horizontalStack=0;resizeParent=1;resizeParentMax=0;resizeLast=0;collapsible=1;marginBottom=0;whiteSpace=wrap;html=1;" vertex="1" parent="1">
          <mxGeometry x="680" y="-170" width="160" height="90" as="geometry" />
        </mxCell>
        <mxCell id="XvOkOxBaqr0Ywed5quaq-61" value="&lt;div&gt;A&lt;/div&gt;&lt;div&gt;...&lt;/div&gt;&lt;div&gt;H&lt;br&gt;&lt;/div&gt;" style="text;strokeColor=none;fillColor=none;align=left;verticalAlign=top;spacingLeft=4;spacingRight=4;overflow=hidden;rotatable=0;points=[[0,0.5],[1,0.5]];portConstraint=eastwest;whiteSpace=wrap;html=1;" vertex="1" parent="XvOkOxBaqr0Ywed5quaq-60">
          <mxGeometry y="40" width="160" height="50" as="geometry" />
        </mxCell>
        <mxCell id="XvOkOxBaqr0Ywed5quaq-68" value="&lt;div&gt;&amp;lt;&amp;lt;enum&amp;gt;&amp;gt;&lt;/div&gt;&lt;div&gt;Column&lt;br&gt;&lt;/div&gt;" style="swimlane;fontStyle=1;align=center;verticalAlign=top;childLayout=stackLayout;horizontal=1;startSize=40;horizontalStack=0;resizeParent=1;resizeParentMax=0;resizeLast=0;collapsible=1;marginBottom=0;whiteSpace=wrap;html=1;" vertex="1" parent="1">
          <mxGeometry x="880" y="-170" width="160" height="90" as="geometry" />
        </mxCell>
        <mxCell id="XvOkOxBaqr0Ywed5quaq-69" value="&lt;div&gt;1&lt;/div&gt;&lt;div&gt;...&lt;/div&gt;&lt;div&gt;8&lt;br&gt;&lt;/div&gt;" style="text;strokeColor=none;fillColor=none;align=left;verticalAlign=top;spacingLeft=4;spacingRight=4;overflow=hidden;rotatable=0;points=[[0,0.5],[1,0.5]];portConstraint=eastwest;whiteSpace=wrap;html=1;" vertex="1" parent="XvOkOxBaqr0Ywed5quaq-68">
          <mxGeometry y="40" width="160" height="50" as="geometry" />
        </mxCell>
        <mxCell id="XvOkOxBaqr0Ywed5quaq-86" style="rounded=0;orthogonalLoop=1;jettySize=auto;html=1;startArrow=diamond;startFill=1;endArrow=open;endFill=0;" edge="1" parent="1" source="XvOkOxBaqr0Ywed5quaq-76">
          <mxGeometry relative="1" as="geometry">
            <mxPoint x="564.0936363636365" as="sourcePoint" />
            <mxPoint x="440.00272727272727" y="130" as="targetPoint" />
          </mxGeometry>
        </mxCell>
        <mxCell id="XvOkOxBaqr0Ywed5quaq-87" value="16" style="edgeLabel;html=1;align=center;verticalAlign=middle;resizable=0;points=[];" vertex="1" connectable="0" parent="XvOkOxBaqr0Ywed5quaq-86">
          <mxGeometry x="-0.702" relative="1" as="geometry">
            <mxPoint as="offset" />
          </mxGeometry>
        </mxCell>
        <mxCell id="XvOkOxBaqr0Ywed5quaq-88" value="- whitePieces" style="edgeLabel;html=1;align=center;verticalAlign=middle;resizable=0;points=[];" vertex="1" connectable="0" parent="XvOkOxBaqr0Ywed5quaq-86">
          <mxGeometry x="0.4671" y="-1" relative="1" as="geometry">
            <mxPoint as="offset" />
          </mxGeometry>
        </mxCell>
        <mxCell id="XvOkOxBaqr0Ywed5quaq-76" value="Board" style="swimlane;fontStyle=1;align=center;verticalAlign=top;childLayout=stackLayout;horizontal=1;startSize=26;horizontalStack=0;resizeParent=1;resizeParentMax=0;resizeLast=0;collapsible=1;marginBottom=0;whiteSpace=wrap;html=1;" vertex="1" parent="1">
          <mxGeometry x="250" y="-130" width="410" height="120" as="geometry" />
        </mxCell>
        <mxCell id="XvOkOxBaqr0Ywed5quaq-78" value="" style="line;strokeWidth=1;fillColor=none;align=left;verticalAlign=middle;spacingTop=-1;spacingLeft=3;spacingRight=3;rotatable=0;labelPosition=right;points=[];portConstraint=eastwest;strokeColor=inherit;" vertex="1" parent="XvOkOxBaqr0Ywed5quaq-76">
          <mxGeometry y="26" width="410" height="8" as="geometry" />
        </mxCell>
        <mxCell id="XvOkOxBaqr0Ywed5quaq-79" value="&lt;div&gt;+ Board()&lt;/div&gt;&lt;div&gt;+ getPieceAt(Row, Column): Piece&lt;br&gt;&lt;/div&gt;&lt;div&gt;+ getPossibleMoves(Piece): vector&amp;lt;Square&amp;gt;&lt;br&gt;&lt;/div&gt;&lt;div&gt;+ getSquareAt(Row, Column): Square&lt;/div&gt;&lt;div&gt;+&amp;nbsp;getAvailableSquares(vector&amp;lt;Square&amp;gt;, Piece): vector&amp;lt;Square&amp;gt;&lt;br&gt;&lt;/div&gt;" style="text;strokeColor=none;fillColor=none;align=left;verticalAlign=top;spacingLeft=4;spacingRight=4;overflow=hidden;rotatable=0;points=[[0,0.5],[1,0.5]];portConstraint=eastwest;whiteSpace=wrap;html=1;" vertex="1" parent="XvOkOxBaqr0Ywed5quaq-76">
          <mxGeometry y="34" width="410" height="86" as="geometry" />
        </mxCell>
        <mxCell id="XvOkOxBaqr0Ywed5quaq-82" style="rounded=0;orthogonalLoop=1;jettySize=auto;html=1;strokeColor=default;endArrow=open;endFill=0;startArrow=diamondThin;startFill=1;" edge="1" parent="1" source="XvOkOxBaqr0Ywed5quaq-76" target="XvOkOxBaqr0Ywed5quaq-56">
          <mxGeometry relative="1" as="geometry">
            <mxPoint x="760" y="50" as="sourcePoint" />
          </mxGeometry>
        </mxCell>
        <mxCell id="XvOkOxBaqr0Ywed5quaq-84" value="64" style="edgeLabel;html=1;align=center;verticalAlign=middle;resizable=0;points=[];" vertex="1" connectable="0" parent="XvOkOxBaqr0Ywed5quaq-82">
          <mxGeometry x="-0.8396" y="-1" relative="1" as="geometry">
            <mxPoint x="4" y="6" as="offset" />
          </mxGeometry>
        </mxCell>
        <mxCell id="XvOkOxBaqr0Ywed5quaq-89" style="rounded=0;orthogonalLoop=1;jettySize=auto;html=1;startArrow=diamond;startFill=1;endArrow=open;endFill=0;" edge="1" parent="1" source="XvOkOxBaqr0Ywed5quaq-76">
          <mxGeometry relative="1" as="geometry">
            <mxPoint x="633.3636363636365" as="sourcePoint" />
            <mxPoint x="509.27272727272725" y="130" as="targetPoint" />
          </mxGeometry>
        </mxCell>
        <mxCell id="XvOkOxBaqr0Ywed5quaq-90" value="16" style="edgeLabel;html=1;align=center;verticalAlign=middle;resizable=0;points=[];" vertex="1" connectable="0" parent="XvOkOxBaqr0Ywed5quaq-89">
          <mxGeometry x="-0.702" relative="1" as="geometry">
            <mxPoint as="offset" />
          </mxGeometry>
        </mxCell>
        <mxCell id="XvOkOxBaqr0Ywed5quaq-91" value="- blackPieces" style="edgeLabel;html=1;align=center;verticalAlign=middle;resizable=0;points=[];" vertex="1" connectable="0" parent="XvOkOxBaqr0Ywed5quaq-89">
          <mxGeometry x="0.4671" y="-1" relative="1" as="geometry">
            <mxPoint as="offset" />
          </mxGeometry>
        </mxCell>
      </root>
    </mxGraphModel>
  </diagram>
</mxfile>
